<mxfile host="Electron" agent="Mozilla/5.0 (Windows NT 10.0; Win64; x64) AppleWebKit/537.36 (KHTML, like Gecko) draw.io/28.0.6 Chrome/138.0.7204.100 Electron/37.2.3 Safari/537.36" version="28.0.6" pages="3">
  <diagram name="Main" id="r8HNNYVXKzOX3DMz5FX9">
    <mxGraphModel dx="1669" dy="1190" grid="1" gridSize="10" guides="1" tooltips="1" connect="1" arrows="1" fold="1" page="1" pageScale="1" pageWidth="850" pageHeight="1100" math="0" shadow="0">
      <root>
        <mxCell id="0" />
        <mxCell id="1" parent="0" />
        <mxCell id="2mpJVt863RNE0nvuij2v-1" value="" style="strokeWidth=1;shadow=0;dashed=0;align=center;html=1;shape=mxgraph.mockup.containers.browserWindow;rSize=0;strokeColor=#666666;strokeColor2=#008cff;strokeColor3=#c4c4c4;mainText=,;recursiveResize=0;" vertex="1" parent="1">
          <mxGeometry x="40" y="80" width="770" height="990" as="geometry" />
        </mxCell>
        <mxCell id="2mpJVt863RNE0nvuij2v-2" value="Main" style="strokeWidth=1;shadow=0;dashed=0;align=center;html=1;shape=mxgraph.mockup.containers.anchor;fontSize=17;fontColor=#666666;align=left;whiteSpace=wrap;" vertex="1" parent="2mpJVt863RNE0nvuij2v-1">
          <mxGeometry x="60" y="12" width="110" height="26" as="geometry" />
        </mxCell>
        <mxCell id="2mpJVt863RNE0nvuij2v-3" value="task-management-app" style="strokeWidth=1;shadow=0;dashed=0;align=center;html=1;shape=mxgraph.mockup.containers.anchor;rSize=0;fontSize=17;fontColor=#666666;align=left;" vertex="1" parent="2mpJVt863RNE0nvuij2v-1">
          <mxGeometry x="130" y="60" width="250" height="26" as="geometry" />
        </mxCell>
        <mxCell id="Hh63258AwCuG5ntGKjMf-1" value="" style="rounded=0;whiteSpace=wrap;html=1;" vertex="1" parent="2mpJVt863RNE0nvuij2v-1">
          <mxGeometry y="150" width="770" height="280" as="geometry" />
        </mxCell>
        <mxCell id="Hh63258AwCuG5ntGKjMf-2" value="" style="rounded=1;whiteSpace=wrap;html=1;" vertex="1" parent="2mpJVt863RNE0nvuij2v-1">
          <mxGeometry x="200" y="210" width="390" height="160" as="geometry" />
        </mxCell>
        <mxCell id="Hh63258AwCuG5ntGKjMf-3" value="" style="verticalLabelPosition=bottom;shadow=0;dashed=0;align=center;html=1;verticalAlign=top;strokeWidth=1;shape=mxgraph.mockup.graphics.simpleIcon;strokeColor=#999999;" vertex="1" parent="2mpJVt863RNE0nvuij2v-1">
          <mxGeometry x="220" y="230" width="350" height="120" as="geometry" />
        </mxCell>
        <mxCell id="Hh63258AwCuG5ntGKjMf-4" value="&lt;font style=&quot;font-size: 18px;&quot;&gt;Hero Section&lt;/font&gt;" style="text;html=1;align=center;verticalAlign=middle;whiteSpace=wrap;rounded=0;" vertex="1" parent="2mpJVt863RNE0nvuij2v-1">
          <mxGeometry x="320" y="262.5" width="150" height="55" as="geometry" />
        </mxCell>
        <mxCell id="Hh63258AwCuG5ntGKjMf-5" value="&lt;font style=&quot;font-size: 18px;&quot;&gt;Features Section&lt;/font&gt;" style="text;html=1;align=center;verticalAlign=middle;whiteSpace=wrap;rounded=0;" vertex="1" parent="2mpJVt863RNE0nvuij2v-1">
          <mxGeometry x="325" y="452.5" width="145" height="55" as="geometry" />
        </mxCell>
        <mxCell id="Hh63258AwCuG5ntGKjMf-6" value="" style="rounded=1;whiteSpace=wrap;html=1;" vertex="1" parent="2mpJVt863RNE0nvuij2v-1">
          <mxGeometry x="100" y="520" width="130" height="140" as="geometry" />
        </mxCell>
        <mxCell id="Hh63258AwCuG5ntGKjMf-7" value="" style="rounded=1;whiteSpace=wrap;html=1;" vertex="1" parent="2mpJVt863RNE0nvuij2v-1">
          <mxGeometry x="320" y="520" width="130" height="140" as="geometry" />
        </mxCell>
        <mxCell id="Hh63258AwCuG5ntGKjMf-8" value="" style="rounded=1;whiteSpace=wrap;html=1;" vertex="1" parent="2mpJVt863RNE0nvuij2v-1">
          <mxGeometry x="550" y="520" width="130" height="140" as="geometry" />
        </mxCell>
        <mxCell id="Hh63258AwCuG5ntGKjMf-9" value="&lt;font style=&quot;font-size: 15px;&quot;&gt;Feature 1&lt;/font&gt;" style="text;html=1;align=center;verticalAlign=middle;whiteSpace=wrap;rounded=0;" vertex="1" parent="2mpJVt863RNE0nvuij2v-1">
          <mxGeometry x="117.5" y="565" width="95" height="50" as="geometry" />
        </mxCell>
        <mxCell id="Hh63258AwCuG5ntGKjMf-10" value="&lt;font style=&quot;font-size: 15px;&quot;&gt;Feature 2&lt;/font&gt;" style="text;html=1;align=center;verticalAlign=middle;whiteSpace=wrap;rounded=0;" vertex="1" parent="2mpJVt863RNE0nvuij2v-1">
          <mxGeometry x="338" y="565" width="95" height="50" as="geometry" />
        </mxCell>
        <mxCell id="Hh63258AwCuG5ntGKjMf-11" value="&lt;font style=&quot;font-size: 15px;&quot;&gt;Feature 3&lt;/font&gt;" style="text;html=1;align=center;verticalAlign=middle;whiteSpace=wrap;rounded=0;" vertex="1" parent="2mpJVt863RNE0nvuij2v-1">
          <mxGeometry x="567.5" y="565" width="95" height="50" as="geometry" />
        </mxCell>
        <mxCell id="Hh63258AwCuG5ntGKjMf-13" value="&lt;font style=&quot;font-size: 15px;&quot;&gt;Task Management&lt;/font&gt;" style="text;html=1;align=center;verticalAlign=middle;whiteSpace=wrap;rounded=0;" vertex="1" parent="2mpJVt863RNE0nvuij2v-1">
          <mxGeometry x="10" y="120" width="130" height="30" as="geometry" />
        </mxCell>
        <mxCell id="Hh63258AwCuG5ntGKjMf-15" value="&lt;font style=&quot;font-size: 15px;&quot;&gt;Contact&lt;/font&gt;" style="text;html=1;align=center;verticalAlign=middle;whiteSpace=wrap;rounded=0;" vertex="1" parent="2mpJVt863RNE0nvuij2v-1">
          <mxGeometry x="680" y="120" width="80" height="30" as="geometry" />
        </mxCell>
        <mxCell id="Hh63258AwCuG5ntGKjMf-16" value="&lt;font style=&quot;font-size: 15px;&quot;&gt;Todo&lt;/font&gt;" style="text;html=1;align=center;verticalAlign=middle;whiteSpace=wrap;rounded=0;" vertex="1" parent="2mpJVt863RNE0nvuij2v-1">
          <mxGeometry x="600" y="120" width="80" height="30" as="geometry" />
        </mxCell>
        <mxCell id="Hh63258AwCuG5ntGKjMf-17" value="" style="rounded=0;whiteSpace=wrap;html=1;" vertex="1" parent="1">
          <mxGeometry x="40" y="780" width="770" height="290" as="geometry" />
        </mxCell>
        <mxCell id="Hh63258AwCuG5ntGKjMf-19" value="CTA Section" style="text;html=1;align=center;verticalAlign=middle;whiteSpace=wrap;rounded=0;" vertex="1" parent="1">
          <mxGeometry x="375" y="800" width="100" height="50" as="geometry" />
        </mxCell>
        <mxCell id="Hh63258AwCuG5ntGKjMf-20" value="Get Started" style="rounded=1;fillColor=#0057D8;strokeColor=none;html=1;whiteSpace=wrap;fontColor=#ffffff;align=center;verticalAlign=middle;fontStyle=0;fontSize=12;sketch=0;" vertex="1" parent="1">
          <mxGeometry x="270" y="908.5" width="86" height="33" as="geometry" />
        </mxCell>
        <mxCell id="Hh63258AwCuG5ntGKjMf-21" value="Learn More" style="rounded=1;fillColor=#0057D8;strokeColor=none;html=1;whiteSpace=wrap;fontColor=#ffffff;align=center;verticalAlign=middle;fontStyle=0;fontSize=12;sketch=0;" vertex="1" parent="1">
          <mxGeometry x="490" y="908.5" width="86" height="33" as="geometry" />
        </mxCell>
      </root>
    </mxGraphModel>
  </diagram>
  <diagram id="bpNyL6RtVXLe5c2xNR3N" name="Todo">
    <mxGraphModel dx="1335" dy="952" grid="1" gridSize="10" guides="1" tooltips="1" connect="1" arrows="1" fold="1" page="1" pageScale="1" pageWidth="850" pageHeight="1100" math="0" shadow="0">
      <root>
        <mxCell id="0" />
        <mxCell id="1" parent="0" />
        <mxCell id="D1nNxJQmQwrwnaiNcnL8-1" value="" style="strokeWidth=1;shadow=0;dashed=0;align=center;html=1;shape=mxgraph.mockup.containers.browserWindow;rSize=0;strokeColor=#666666;strokeColor2=#008cff;strokeColor3=#c4c4c4;mainText=,;recursiveResize=0;" vertex="1" parent="1">
          <mxGeometry x="40" y="80" width="770" height="700" as="geometry" />
        </mxCell>
        <mxCell id="D1nNxJQmQwrwnaiNcnL8-2" value="Todo" style="strokeWidth=1;shadow=0;dashed=0;align=center;html=1;shape=mxgraph.mockup.containers.anchor;fontSize=17;fontColor=#666666;align=left;whiteSpace=wrap;" vertex="1" parent="D1nNxJQmQwrwnaiNcnL8-1">
          <mxGeometry x="60" y="12" width="110" height="26" as="geometry" />
        </mxCell>
        <mxCell id="D1nNxJQmQwrwnaiNcnL8-3" value="task-management-app/todo" style="strokeWidth=1;shadow=0;dashed=0;align=center;html=1;shape=mxgraph.mockup.containers.anchor;rSize=0;fontSize=17;fontColor=#666666;align=left;" vertex="1" parent="D1nNxJQmQwrwnaiNcnL8-1">
          <mxGeometry x="130" y="60" width="250" height="26" as="geometry" />
        </mxCell>
        <mxCell id="RUticcQm4PKI47FzqRqc-1" value="&lt;h1&gt;Task Manager&lt;/h1&gt;" style="text;html=1;align=center;verticalAlign=middle;whiteSpace=wrap;rounded=0;" vertex="1" parent="D1nNxJQmQwrwnaiNcnL8-1">
          <mxGeometry x="270" y="150" width="230" height="90" as="geometry" />
        </mxCell>
        <mxCell id="RUticcQm4PKI47FzqRqc-2" value="Readonly input here..." style="html=1;shadow=0;dashed=0;shape=mxgraph.bootstrap.rrect;rSize=5;strokeColor=#CED4DA;strokeWidth=1;fillColor=#E9ECEF;fontColor=#505050;whiteSpace=wrap;align=left;verticalAlign=middle;spacingLeft=10;fontSize=14;" vertex="1" parent="D1nNxJQmQwrwnaiNcnL8-1">
          <mxGeometry x="120" y="240" width="310" height="40" as="geometry" />
        </mxCell>
        <mxCell id="RUticcQm4PKI47FzqRqc-3" value="Add" style="rounded=1;fillColor=#0057D8;strokeColor=none;html=1;whiteSpace=wrap;fontColor=#ffffff;align=center;verticalAlign=middle;fontStyle=0;fontSize=12;sketch=0;" vertex="1" parent="D1nNxJQmQwrwnaiNcnL8-1">
          <mxGeometry x="510" y="240" width="86" height="33" as="geometry" />
        </mxCell>
        <mxCell id="RUticcQm4PKI47FzqRqc-4" value="All" style="rounded=1;html=1;shadow=0;dashed=0;whiteSpace=wrap;fontSize=10;fillColor=#666666;align=center;strokeColor=#4D4D4D;fontColor=#ffffff;" vertex="1" parent="D1nNxJQmQwrwnaiNcnL8-1">
          <mxGeometry x="190" y="300" width="105.5" height="30" as="geometry" />
        </mxCell>
        <mxCell id="RUticcQm4PKI47FzqRqc-5" value="Active" style="rounded=1;html=1;shadow=0;dashed=0;whiteSpace=wrap;fontSize=10;fillColor=#666666;align=center;strokeColor=#4D4D4D;fontColor=#ffffff;" vertex="1" parent="D1nNxJQmQwrwnaiNcnL8-1">
          <mxGeometry x="324.5" y="300" width="105.5" height="30" as="geometry" />
        </mxCell>
        <mxCell id="RUticcQm4PKI47FzqRqc-6" value="Completed" style="rounded=1;html=1;shadow=0;dashed=0;whiteSpace=wrap;fontSize=10;fillColor=#666666;align=center;strokeColor=#4D4D4D;fontColor=#ffffff;" vertex="1" parent="D1nNxJQmQwrwnaiNcnL8-1">
          <mxGeometry x="460" y="300" width="105.5" height="30" as="geometry" />
        </mxCell>
        <mxCell id="RUticcQm4PKI47FzqRqc-7" value="Todo Item" style="html=1;shadow=0;dashed=0;shape=mxgraph.bootstrap.rrect;rSize=5;strokeColor=#CED4DA;strokeWidth=1;fillColor=#E9ECEF;fontColor=#505050;whiteSpace=wrap;align=center;verticalAlign=middle;spacingLeft=10;fontSize=14;" vertex="1" parent="D1nNxJQmQwrwnaiNcnL8-1">
          <mxGeometry x="150" y="380" width="450" height="40" as="geometry" />
        </mxCell>
        <mxCell id="RUticcQm4PKI47FzqRqc-8" value="" style="html=1;shadow=0;dashed=0;shape=mxgraph.bootstrap.checkbox2;labelPosition=right;verticalLabelPosition=middle;align=left;verticalAlign=middle;checked=0;spacing=5;checkedFill=#0085FC;checkedStroke=#ffffff;sketch=0;" vertex="1" parent="D1nNxJQmQwrwnaiNcnL8-1">
          <mxGeometry x="180" y="395" width="10" height="10" as="geometry" />
        </mxCell>
        <mxCell id="RUticcQm4PKI47FzqRqc-9" value="" style="sketch=0;html=1;aspect=fixed;strokeColor=none;shadow=0;align=center;fillColor=#2D9C5E;verticalAlign=top;labelPosition=center;verticalLabelPosition=bottom;shape=mxgraph.gcp2.check" vertex="1" parent="D1nNxJQmQwrwnaiNcnL8-1">
          <mxGeometry x="510" y="392" width="20" height="16" as="geometry" />
        </mxCell>
        <mxCell id="RUticcQm4PKI47FzqRqc-10" value="" style="shape=mxgraph.mockup.markup.redX;fillColor=#ff0000;html=1;shadow=0;whiteSpace=wrap;strokeColor=none;" vertex="1" parent="D1nNxJQmQwrwnaiNcnL8-1">
          <mxGeometry x="550" y="392" width="20" height="20" as="geometry" />
        </mxCell>
        <mxCell id="RUticcQm4PKI47FzqRqc-23" value="Todo Item" style="html=1;shadow=0;dashed=0;shape=mxgraph.bootstrap.rrect;rSize=5;strokeColor=#CED4DA;strokeWidth=1;fillColor=#E9ECEF;fontColor=#505050;whiteSpace=wrap;align=center;verticalAlign=middle;spacingLeft=10;fontSize=14;" vertex="1" parent="D1nNxJQmQwrwnaiNcnL8-1">
          <mxGeometry x="150" y="430" width="450" height="40" as="geometry" />
        </mxCell>
        <mxCell id="RUticcQm4PKI47FzqRqc-24" value="" style="html=1;shadow=0;dashed=0;shape=mxgraph.bootstrap.checkbox2;labelPosition=right;verticalLabelPosition=middle;align=left;verticalAlign=middle;checked=0;spacing=5;checkedFill=#0085FC;checkedStroke=#ffffff;sketch=0;" vertex="1" parent="D1nNxJQmQwrwnaiNcnL8-1">
          <mxGeometry x="180" y="445" width="10" height="10" as="geometry" />
        </mxCell>
        <mxCell id="RUticcQm4PKI47FzqRqc-25" value="" style="sketch=0;html=1;aspect=fixed;strokeColor=none;shadow=0;align=center;fillColor=#2D9C5E;verticalAlign=top;labelPosition=center;verticalLabelPosition=bottom;shape=mxgraph.gcp2.check" vertex="1" parent="D1nNxJQmQwrwnaiNcnL8-1">
          <mxGeometry x="510" y="442" width="20" height="16" as="geometry" />
        </mxCell>
        <mxCell id="RUticcQm4PKI47FzqRqc-26" value="" style="shape=mxgraph.mockup.markup.redX;fillColor=#ff0000;html=1;shadow=0;whiteSpace=wrap;strokeColor=none;" vertex="1" parent="D1nNxJQmQwrwnaiNcnL8-1">
          <mxGeometry x="550" y="442" width="20" height="20" as="geometry" />
        </mxCell>
        <mxCell id="RUticcQm4PKI47FzqRqc-27" value="Todo Item" style="html=1;shadow=0;dashed=0;shape=mxgraph.bootstrap.rrect;rSize=5;strokeColor=#CED4DA;strokeWidth=1;fillColor=#E9ECEF;fontColor=#505050;whiteSpace=wrap;align=center;verticalAlign=middle;spacingLeft=10;fontSize=14;" vertex="1" parent="D1nNxJQmQwrwnaiNcnL8-1">
          <mxGeometry x="150" y="480" width="450" height="40" as="geometry" />
        </mxCell>
        <mxCell id="RUticcQm4PKI47FzqRqc-28" value="" style="html=1;shadow=0;dashed=0;shape=mxgraph.bootstrap.checkbox2;labelPosition=right;verticalLabelPosition=middle;align=left;verticalAlign=middle;checked=0;spacing=5;checkedFill=#0085FC;checkedStroke=#ffffff;sketch=0;" vertex="1" parent="D1nNxJQmQwrwnaiNcnL8-1">
          <mxGeometry x="180" y="495" width="10" height="10" as="geometry" />
        </mxCell>
        <mxCell id="RUticcQm4PKI47FzqRqc-29" value="" style="sketch=0;html=1;aspect=fixed;strokeColor=none;shadow=0;align=center;fillColor=#2D9C5E;verticalAlign=top;labelPosition=center;verticalLabelPosition=bottom;shape=mxgraph.gcp2.check" vertex="1" parent="D1nNxJQmQwrwnaiNcnL8-1">
          <mxGeometry x="510" y="492" width="20" height="16" as="geometry" />
        </mxCell>
        <mxCell id="RUticcQm4PKI47FzqRqc-30" value="" style="shape=mxgraph.mockup.markup.redX;fillColor=#ff0000;html=1;shadow=0;whiteSpace=wrap;strokeColor=none;" vertex="1" parent="D1nNxJQmQwrwnaiNcnL8-1">
          <mxGeometry x="550" y="492" width="20" height="20" as="geometry" />
        </mxCell>
        <mxCell id="RUticcQm4PKI47FzqRqc-31" value="Todo Item" style="html=1;shadow=0;dashed=0;shape=mxgraph.bootstrap.rrect;rSize=5;strokeColor=#CED4DA;strokeWidth=1;fillColor=#E9ECEF;fontColor=#505050;whiteSpace=wrap;align=center;verticalAlign=middle;spacingLeft=10;fontSize=14;" vertex="1" parent="D1nNxJQmQwrwnaiNcnL8-1">
          <mxGeometry x="150" y="530" width="450" height="40" as="geometry" />
        </mxCell>
        <mxCell id="RUticcQm4PKI47FzqRqc-32" value="" style="html=1;shadow=0;dashed=0;shape=mxgraph.bootstrap.checkbox2;labelPosition=right;verticalLabelPosition=middle;align=left;verticalAlign=middle;checked=0;spacing=5;checkedFill=#0085FC;checkedStroke=#ffffff;sketch=0;" vertex="1" parent="D1nNxJQmQwrwnaiNcnL8-1">
          <mxGeometry x="180" y="545" width="10" height="10" as="geometry" />
        </mxCell>
        <mxCell id="RUticcQm4PKI47FzqRqc-33" value="" style="sketch=0;html=1;aspect=fixed;strokeColor=none;shadow=0;align=center;fillColor=#2D9C5E;verticalAlign=top;labelPosition=center;verticalLabelPosition=bottom;shape=mxgraph.gcp2.check" vertex="1" parent="D1nNxJQmQwrwnaiNcnL8-1">
          <mxGeometry x="510" y="542" width="20" height="16" as="geometry" />
        </mxCell>
        <mxCell id="RUticcQm4PKI47FzqRqc-34" value="" style="shape=mxgraph.mockup.markup.redX;fillColor=#ff0000;html=1;shadow=0;whiteSpace=wrap;strokeColor=none;" vertex="1" parent="D1nNxJQmQwrwnaiNcnL8-1">
          <mxGeometry x="550" y="542" width="20" height="20" as="geometry" />
        </mxCell>
      </root>
    </mxGraphModel>
  </diagram>
  <diagram id="R4Qhb7IkLf2hxVYIpwD4" name="Contact">
    <mxGraphModel dx="1335" dy="952" grid="1" gridSize="10" guides="1" tooltips="1" connect="1" arrows="1" fold="1" page="1" pageScale="1" pageWidth="850" pageHeight="1100" math="0" shadow="0">
      <root>
        <mxCell id="0" />
        <mxCell id="1" parent="0" />
        <mxCell id="zVJ0iaUNUjLoOCJEwmv3-1" value="" style="strokeWidth=1;shadow=0;dashed=0;align=center;html=1;shape=mxgraph.mockup.containers.browserWindow;rSize=0;strokeColor=#666666;strokeColor2=#008cff;strokeColor3=#c4c4c4;mainText=,;recursiveResize=0;" vertex="1" parent="1">
          <mxGeometry x="40" y="80" width="770" height="990" as="geometry" />
        </mxCell>
        <mxCell id="geqgdInk54pt9EUH8qAQ-1" value="" style="rounded=1;whiteSpace=wrap;html=1;" vertex="1" parent="zVJ0iaUNUjLoOCJEwmv3-1">
          <mxGeometry x="150" y="230" width="470" height="310" as="geometry" />
        </mxCell>
        <mxCell id="zVJ0iaUNUjLoOCJEwmv3-2" value="Contact" style="strokeWidth=1;shadow=0;dashed=0;align=center;html=1;shape=mxgraph.mockup.containers.anchor;fontSize=17;fontColor=#666666;align=left;whiteSpace=wrap;" vertex="1" parent="zVJ0iaUNUjLoOCJEwmv3-1">
          <mxGeometry x="60" y="12" width="110" height="26" as="geometry" />
        </mxCell>
        <mxCell id="zVJ0iaUNUjLoOCJEwmv3-3" value="task-management-app/contact" style="strokeWidth=1;shadow=0;dashed=0;align=center;html=1;shape=mxgraph.mockup.containers.anchor;rSize=0;fontSize=17;fontColor=#666666;align=left;" vertex="1" parent="zVJ0iaUNUjLoOCJEwmv3-1">
          <mxGeometry x="130" y="60" width="250" height="26" as="geometry" />
        </mxCell>
        <mxCell id="kyG9CAvdohIbxg1jiTrR-1" value="First name" style="html=1;shadow=0;dashed=0;shape=mxgraph.bootstrap.rrect;rSize=5;fillColor=none;strokeColor=#999999;align=left;spacing=15;fontSize=14;fontColor=#6C767D;" vertex="1" parent="zVJ0iaUNUjLoOCJEwmv3-1">
          <mxGeometry x="185" y="260" width="190" height="30" as="geometry" />
        </mxCell>
        <mxCell id="kyG9CAvdohIbxg1jiTrR-2" value="Last name" style="html=1;shadow=0;dashed=0;shape=mxgraph.bootstrap.rrect;rSize=5;fillColor=none;strokeColor=#999999;align=left;spacing=15;fontSize=14;fontColor=#6C767D;" vertex="1" parent="zVJ0iaUNUjLoOCJEwmv3-1">
          <mxGeometry x="395" y="260" width="190" height="30" as="geometry" />
        </mxCell>
        <mxCell id="kyG9CAvdohIbxg1jiTrR-3" value="Email" style="html=1;shadow=0;dashed=0;shape=mxgraph.bootstrap.rrect;rSize=5;fillColor=none;strokeColor=#999999;align=left;spacing=15;fontSize=14;fontColor=#6C767D;" vertex="1" parent="zVJ0iaUNUjLoOCJEwmv3-1">
          <mxGeometry x="185" y="320" width="400" height="30" as="geometry" />
        </mxCell>
        <mxCell id="kyG9CAvdohIbxg1jiTrR-4" value="Message" style="html=1;shadow=0;dashed=0;shape=mxgraph.bootstrap.rrect;rSize=5;fillColor=none;strokeColor=#999999;align=left;spacing=15;fontSize=14;fontColor=#6C767D;" vertex="1" parent="zVJ0iaUNUjLoOCJEwmv3-1">
          <mxGeometry x="185" y="380" width="400" height="120" as="geometry" />
        </mxCell>
        <mxCell id="kyG9CAvdohIbxg1jiTrR-5" value="&lt;h1&gt;Contact&lt;/h1&gt;" style="text;html=1;align=center;verticalAlign=middle;whiteSpace=wrap;rounded=0;" vertex="1" parent="zVJ0iaUNUjLoOCJEwmv3-1">
          <mxGeometry x="308" y="150" width="155" height="70" as="geometry" />
        </mxCell>
        <mxCell id="kyG9CAvdohIbxg1jiTrR-6" value="FAQ" style="strokeWidth=1;shadow=0;dashed=0;align=center;html=1;shape=mxgraph.mockup.forms.comboBox;strokeColor=#999999;fillColor=#ddeeff;align=left;fillColor2=#aaddff;mainText=;fontColor=#666666;fontSize=17;spacingLeft=3;" vertex="1" parent="zVJ0iaUNUjLoOCJEwmv3-1">
          <mxGeometry x="185" y="600" width="395" height="30" as="geometry" />
        </mxCell>
        <mxCell id="kyG9CAvdohIbxg1jiTrR-7" value="FAQ" style="strokeWidth=1;shadow=0;dashed=0;align=center;html=1;shape=mxgraph.mockup.forms.comboBox;strokeColor=#999999;fillColor=#ddeeff;align=left;fillColor2=#aaddff;mainText=;fontColor=#666666;fontSize=17;spacingLeft=3;" vertex="1" parent="zVJ0iaUNUjLoOCJEwmv3-1">
          <mxGeometry x="185" y="650" width="395" height="30" as="geometry" />
        </mxCell>
        <mxCell id="kyG9CAvdohIbxg1jiTrR-8" value="FAQ" style="strokeWidth=1;shadow=0;dashed=0;align=center;html=1;shape=mxgraph.mockup.forms.comboBox;strokeColor=#999999;fillColor=#ddeeff;align=left;fillColor2=#aaddff;mainText=;fontColor=#666666;fontSize=17;spacingLeft=3;" vertex="1" parent="zVJ0iaUNUjLoOCJEwmv3-1">
          <mxGeometry x="185" y="700" width="395" height="30" as="geometry" />
        </mxCell>
        <mxCell id="kyG9CAvdohIbxg1jiTrR-9" value="FAQ" style="strokeWidth=1;shadow=0;dashed=0;align=center;html=1;shape=mxgraph.mockup.forms.comboBox;strokeColor=#999999;fillColor=#ddeeff;align=left;fillColor2=#aaddff;mainText=;fontColor=#666666;fontSize=17;spacingLeft=3;" vertex="1" parent="zVJ0iaUNUjLoOCJEwmv3-1">
          <mxGeometry x="185" y="750" width="395" height="30" as="geometry" />
        </mxCell>
        <mxCell id="kyG9CAvdohIbxg1jiTrR-10" value="FAQ" style="strokeWidth=1;shadow=0;dashed=0;align=center;html=1;shape=mxgraph.mockup.forms.comboBox;strokeColor=#999999;fillColor=#ddeeff;align=left;fillColor2=#aaddff;mainText=;fontColor=#666666;fontSize=17;spacingLeft=3;" vertex="1" parent="zVJ0iaUNUjLoOCJEwmv3-1">
          <mxGeometry x="185" y="800" width="395" height="30" as="geometry" />
        </mxCell>
      </root>
    </mxGraphModel>
  </diagram>
</mxfile>
